<svg id="svg" version="1.1" xmlns="http://www.w3.org/2000/svg" xmlns:xlink="http://www.w3.org/1999/xlink" width="400" height="75.59055118110236" viewBox="0, 0, 400,75.59055118110236"><g id="svgg"><path id="path0" d="M111.824 6.080 C 110.488 6.348,109.702 6.599,109.259 6.900 C 108.908 7.138,108.486 7.333,108.323 7.333 C 108.159 7.333,107.814 7.509,107.554 7.725 C 107.295 7.940,106.886 8.221,106.644 8.350 C 105.301 9.065,102.635 11.608,101.726 13.042 C 101.508 13.385,101.266 13.667,101.190 13.667 C 101.113 13.667,100.915 13.967,100.750 14.334 C 100.584 14.701,100.351 15.082,100.233 15.181 C 100.114 15.279,99.930 15.635,99.824 15.972 C 99.718 16.308,99.457 16.846,99.243 17.167 C 99.030 17.487,98.773 18.215,98.672 18.784 C 98.571 19.352,98.341 20.150,98.161 20.557 C 97.434 22.202,97.380 30.273,98.085 31.938 C 98.236 32.293,98.465 33.132,98.595 33.802 C 98.725 34.473,99.020 35.342,99.249 35.734 C 99.479 36.125,99.667 36.602,99.667 36.794 C 99.667 36.985,99.846 37.354,100.064 37.614 C 100.283 37.874,100.581 38.371,100.727 38.720 C 101.262 40.002,104.525 43.420,105.857 44.095 C 106.289 44.314,106.687 44.564,106.740 44.651 C 106.794 44.737,107.230 44.938,107.710 45.096 C 108.190 45.255,108.846 45.520,109.167 45.685 C 111.047 46.650,117.458 46.535,119.587 45.498 C 120.150 45.224,120.672 45.000,120.747 45.000 C 120.823 45.000,121.122 44.819,121.412 44.598 C 122.646 43.657,123.481 43.694,124.476 44.736 C 125.232 45.527,125.599 45.622,126.098 45.153 L 126.500 44.775 126.500 40.316 L 126.500 35.856 126.016 35.511 C 125.363 35.046,125.372 35.042,124.897 36.080 C 124.667 36.583,124.414 37.033,124.335 37.082 C 124.257 37.131,124.071 37.536,123.923 37.982 C 123.774 38.429,123.513 38.921,123.342 39.076 C 123.171 39.231,122.933 39.596,122.813 39.887 C 122.590 40.431,120.150 43.000,119.856 43.000 C 119.766 43.000,119.480 43.175,119.221 43.389 C 117.639 44.693,113.611 45.188,111.250 44.367 C 110.700 44.176,110.041 43.976,109.786 43.922 C 108.092 43.565,105.362 39.616,104.899 36.851 C 104.767 36.062,104.568 34.929,104.457 34.333 C 104.196 32.932,104.189 21.511,104.449 20.083 C 104.548 19.533,104.755 18.191,104.908 17.100 C 105.060 16.010,105.323 14.847,105.492 14.516 C 105.660 14.185,105.888 13.578,105.998 13.166 C 106.356 11.819,108.896 8.714,109.901 8.395 C 110.091 8.335,110.509 8.112,110.831 7.900 C 112.192 7.004,116.630 7.010,117.955 7.911 C 118.297 8.143,118.703 8.333,118.856 8.333 C 119.428 8.333,121.754 10.595,122.524 11.901 C 122.925 12.580,123.712 14.411,123.963 15.247 C 124.338 16.498,125.165 17.204,125.694 16.726 C 126.373 16.111,126.098 7.167,125.399 7.167 C 125.126 7.167,124.198 7.680,123.933 7.977 C 123.519 8.441,122.380 8.465,121.814 8.022 C 119.458 6.176,115.334 5.374,111.824 6.080 M201.981 5.742 C 201.926 5.796,201.302 5.951,200.593 6.087 C 198.407 6.505,196.098 8.027,195.298 9.578 C 195.110 9.942,194.797 10.455,194.603 10.718 C 193.959 11.590,194.087 15.386,194.812 16.917 C 196.330 20.121,196.743 20.941,196.974 21.213 C 197.328 21.629,196.263 22.719,195.138 23.093 C 194.698 23.239,194.292 23.432,194.237 23.522 C 194.181 23.611,193.749 23.868,193.276 24.093 C 192.340 24.538,191.394 25.176,191.000 25.629 C 190.862 25.787,190.548 26.047,190.302 26.205 C 189.901 26.464,188.594 27.935,187.521 29.336 C 187.304 29.620,186.987 30.297,186.818 30.841 C 186.649 31.385,186.390 32.063,186.243 32.347 C 185.852 33.102,185.891 36.131,186.307 37.346 C 186.477 37.843,186.709 38.637,186.821 39.110 C 186.934 39.584,187.208 40.217,187.430 40.518 C 187.652 40.819,187.833 41.160,187.833 41.277 C 187.833 41.978,190.818 44.695,192.056 45.121 C 192.438 45.252,192.986 45.504,193.273 45.682 C 194.771 46.606,201.833 46.506,203.500 45.538 C 203.821 45.351,204.346 45.147,204.667 45.084 C 204.987 45.020,205.512 44.796,205.833 44.586 C 206.154 44.375,206.698 44.113,207.043 44.005 C 207.387 43.896,207.745 43.666,207.837 43.494 C 207.986 43.214,208.913 42.837,209.456 42.834 C 209.570 42.834,210.044 43.426,210.510 44.150 C 211.550 45.767,211.124 45.662,216.609 45.664 L 221.134 45.667 221.476 45.127 L 221.818 44.587 221.451 44.383 C 221.226 44.258,220.370 44.175,219.250 44.170 C 217.331 44.161,216.752 44.006,216.439 43.417 C 216.342 43.233,216.053 42.771,215.798 42.389 C 215.542 42.008,215.333 41.620,215.333 41.527 C 215.333 41.435,215.155 41.147,214.937 40.888 C 214.720 40.629,214.312 39.934,214.031 39.345 L 213.521 38.273 213.885 37.809 C 215.250 36.070,216.333 34.383,216.333 33.996 C 216.333 33.851,216.516 33.483,216.740 33.180 C 216.964 32.876,217.230 32.244,217.330 31.775 C 217.431 31.306,217.661 30.671,217.842 30.365 C 218.031 30.045,218.278 29.089,218.424 28.113 C 218.563 27.180,218.748 26.192,218.834 25.917 C 218.920 25.642,219.030 25.154,219.079 24.833 C 219.128 24.512,219.316 24.006,219.498 23.708 L 219.828 23.167 221.420 23.167 C 223.732 23.167,224.786 22.662,223.675 22.088 C 222.783 21.626,213.525 21.718,212.920 22.194 L 212.461 22.555 213.022 22.854 C 213.457 23.085,213.980 23.154,215.342 23.160 C 216.478 23.164,217.171 23.237,217.300 23.367 C 217.715 23.781,217.390 27.691,216.841 28.903 C 216.671 29.277,216.444 29.916,216.335 30.322 C 216.226 30.729,215.919 31.471,215.652 31.971 C 215.385 32.471,215.167 32.973,215.167 33.086 C 215.167 33.200,215.048 33.391,214.904 33.511 C 214.759 33.631,214.461 34.071,214.242 34.490 C 214.023 34.908,213.553 35.580,213.199 35.983 L 212.556 36.717 212.034 35.983 C 211.748 35.580,211.324 34.899,211.093 34.470 C 210.862 34.041,210.595 33.642,210.500 33.583 C 210.405 33.525,210.137 33.125,209.905 32.697 C 209.674 32.268,209.226 31.504,208.911 31.000 C 208.596 30.496,208.185 29.768,207.998 29.382 C 207.810 28.996,207.583 28.635,207.492 28.578 C 207.401 28.522,207.122 28.102,206.872 27.644 C 205.863 25.797,205.143 24.574,204.268 23.221 C 203.338 21.783,203.489 21.380,205.294 20.482 C 206.144 20.059,206.969 19.600,207.128 19.460 C 207.287 19.321,207.675 19.076,207.990 18.916 C 209.710 18.044,211.594 15.560,211.879 13.786 C 212.222 11.658,210.188 7.786,208.435 7.229 C 208.245 7.169,207.894 6.975,207.655 6.799 C 206.869 6.217,202.347 5.375,201.981 5.742 M330.727 6.225 C 329.989 6.462,329.866 6.623,329.648 7.638 C 329.536 8.158,329.313 8.850,329.152 9.177 C 328.991 9.503,328.735 10.250,328.583 10.836 C 328.431 11.422,328.203 12.102,328.076 12.347 C 327.950 12.592,327.688 13.381,327.495 14.101 C 327.303 14.820,327.080 15.487,327.000 15.583 C 326.920 15.679,326.697 16.349,326.503 17.071 C 326.310 17.793,326.066 18.541,325.962 18.733 C 325.858 18.926,325.604 19.646,325.398 20.333 C 324.943 21.850,324.421 23.397,323.894 24.795 C 323.677 25.370,323.422 26.186,323.328 26.608 C 323.233 27.030,323.015 27.685,322.843 28.063 C 322.671 28.441,322.405 29.234,322.252 29.826 C 322.098 30.418,321.870 31.102,321.743 31.347 C 321.617 31.591,321.400 32.336,321.261 33.002 C 321.122 33.668,320.896 34.383,320.760 34.592 C 320.623 34.801,320.385 35.484,320.231 36.111 C 320.076 36.737,319.811 37.529,319.641 37.869 C 319.471 38.210,319.249 38.878,319.147 39.353 C 319.045 39.827,318.784 40.599,318.566 41.066 C 318.348 41.534,318.169 42.029,318.167 42.167 C 318.152 43.695,317.614 44.054,315.184 44.164 C 313.080 44.259,312.834 44.385,313.150 45.208 L 313.325 45.667 318.658 45.667 L 323.990 45.667 324.137 45.125 C 324.369 44.271,324.170 44.167,322.308 44.167 C 320.019 44.167,319.262 43.858,319.737 43.119 C 319.868 42.916,320.051 42.326,320.145 41.807 C 320.240 41.288,320.498 40.425,320.720 39.890 C 320.942 39.355,321.219 38.504,321.334 38.000 C 321.450 37.496,321.648 36.880,321.773 36.632 C 321.899 36.383,322.116 35.671,322.255 35.048 C 322.469 34.093,322.882 33.019,323.491 31.833 C 323.646 31.532,333.942 31.368,334.484 31.658 C 334.690 31.768,334.826 32.101,334.903 32.683 C 334.966 33.158,335.194 33.894,335.410 34.320 C 335.625 34.745,335.855 35.466,335.920 35.922 C 335.985 36.377,336.245 37.237,336.499 37.833 C 336.752 38.429,337.007 39.242,337.067 39.640 C 337.127 40.038,337.318 40.642,337.491 40.983 C 337.973 41.928,338.285 43.615,338.026 43.875 C 337.898 44.003,337.139 44.115,336.051 44.167 C 334.090 44.259,333.839 44.397,334.150 45.208 L 334.325 45.667 341.238 45.667 L 348.152 45.667 348.259 45.094 C 348.423 44.220,348.315 44.167,346.398 44.167 L 344.650 44.167 344.402 43.542 C 344.266 43.198,344.010 42.614,343.833 42.243 C 343.656 41.873,343.431 41.160,343.332 40.660 C 343.233 40.159,342.974 39.262,342.757 38.667 C 342.150 37.003,341.687 35.560,341.238 33.931 C 341.013 33.114,340.752 32.353,340.659 32.241 C 340.566 32.129,340.377 31.495,340.239 30.833 C 340.101 30.171,339.839 29.339,339.658 28.983 C 339.477 28.628,339.224 27.789,339.095 27.119 C 338.967 26.450,338.713 25.643,338.530 25.326 C 338.348 25.009,338.146 24.412,338.083 24.000 C 338.020 23.587,337.792 22.837,337.578 22.333 C 337.363 21.829,337.107 21.018,337.010 20.532 C 336.912 20.045,336.680 19.311,336.493 18.901 C 336.306 18.491,336.074 17.729,335.978 17.208 C 335.882 16.687,335.659 15.979,335.483 15.634 C 335.307 15.289,335.049 14.464,334.909 13.799 C 334.770 13.135,334.545 12.422,334.409 12.216 C 334.274 12.009,334.052 11.312,333.917 10.666 C 333.781 10.021,333.525 9.210,333.349 8.864 C 333.172 8.518,332.976 7.938,332.912 7.576 C 332.684 6.282,331.952 5.830,330.727 6.225 M3.782 6.612 C 2.699 6.910,4.322 8.000,5.849 8.000 C 7.671 8.000,7.500 6.115,7.500 26.178 C 7.500 46.288,7.719 44.156,5.654 44.183 C 3.573 44.211,3.116 44.493,3.928 45.246 L 4.382 45.667 10.837 45.667 C 16.253 45.667,17.391 45.626,17.903 45.412 C 18.382 45.211,18.876 45.180,20.215 45.265 C 23.302 45.460,25.244 45.061,27.750 43.716 C 28.025 43.569,28.591 43.280,29.007 43.074 C 30.213 42.477,32.356 39.835,32.581 38.667 C 32.643 38.346,32.829 37.708,32.994 37.250 C 34.054 34.308,33.193 31.706,30.173 28.725 C 29.398 27.960,28.679 27.333,28.577 27.333 C 28.474 27.333,28.059 27.117,27.654 26.852 C 27.248 26.587,26.495 26.251,25.979 26.104 C 25.278 25.903,24.932 25.692,24.604 25.263 C 24.042 24.525,24.004 24.589,25.187 24.258 C 28.067 23.449,31.324 20.491,31.580 18.450 C 31.639 17.973,31.768 17.152,31.866 16.625 C 31.964 16.097,31.999 15.422,31.944 15.125 C 31.613 13.321,31.300 12.235,31.023 11.930 C 30.849 11.740,30.604 11.387,30.479 11.148 C 30.101 10.428,28.001 8.755,26.667 8.110 C 24.490 7.058,23.782 6.964,16.917 6.808 C 5.465 6.550,4.084 6.529,3.782 6.612 M39.089 6.657 C 39.027 6.758,39.062 7.101,39.168 7.420 L 39.359 8.000 41.084 8.000 C 43.802 8.000,43.500 5.718,43.500 26.253 L 43.500 43.628 43.098 43.892 C 42.814 44.078,42.199 44.169,40.991 44.202 C 39.090 44.255,38.838 44.394,39.150 45.208 L 39.325 45.667 46.238 45.667 L 53.152 45.667 53.259 45.094 C 53.423 44.222,53.313 44.167,51.429 44.167 C 49.019 44.167,48.768 43.969,48.909 42.186 C 48.964 41.488,49.050 37.493,49.099 33.308 C 49.207 24.074,48.795 25.057,52.453 25.300 C 56.609 25.577,59.278 26.997,59.837 29.229 C 59.932 29.607,60.155 30.367,60.332 30.917 C 60.553 31.605,60.713 32.852,60.843 34.917 C 61.456 44.638,63.758 47.107,71.327 46.158 C 72.905 45.960,72.909 45.958,73.745 45.195 C 74.589 44.425,74.330 44.087,73.007 44.233 C 70.378 44.522,69.912 44.527,69.330 44.278 C 68.649 43.987,68.262 43.587,68.096 43.000 C 67.381 40.481,67.339 40.195,67.333 37.833 C 67.319 31.846,66.032 28.879,62.720 27.193 C 62.336 26.998,61.976 26.763,61.919 26.671 C 61.863 26.579,61.389 26.383,60.867 26.234 C 60.344 26.085,59.692 25.756,59.417 25.502 C 59.142 25.248,58.729 24.943,58.500 24.824 L 58.083 24.609 58.583 24.474 C 58.858 24.400,59.683 24.257,60.417 24.156 C 61.150 24.056,61.975 23.837,62.250 23.670 C 62.525 23.503,63.031 23.290,63.374 23.197 C 64.661 22.848,66.468 21.430,67.648 19.843 C 69.059 17.946,69.143 12.954,67.791 11.359 C 64.458 7.429,63.189 7.019,53.750 6.815 C 50.175 6.738,45.439 6.629,43.226 6.574 C 40.385 6.503,39.169 6.528,39.089 6.657 M77.708 6.610 C 77.405 6.733,77.452 7.061,77.845 7.561 C 78.178 7.984,78.252 8.000,79.900 8.000 C 81.470 8.000,81.638 8.031,81.971 8.386 L 82.333 8.771 82.333 26.200 L 82.333 43.628 81.923 43.897 C 81.611 44.101,81.094 44.167,79.788 44.167 C 77.643 44.167,77.287 44.338,77.761 45.141 L 78.072 45.667 85.038 45.667 L 92.005 45.667 92.332 45.129 C 92.800 44.360,92.597 44.262,90.342 44.167 C 88.709 44.098,88.306 44.028,88.017 43.766 L 87.667 43.448 87.667 26.165 L 87.667 8.882 88.075 8.441 C 88.463 8.022,88.567 8.000,90.117 7.997 C 91.862 7.995,91.953 7.968,92.380 7.345 C 92.954 6.506,92.895 6.499,85.105 6.513 C 81.151 6.520,77.823 6.564,77.708 6.610 M133.375 6.610 C 132.420 6.996,133.671 8.000,135.106 8.000 C 136.304 8.000,136.943 8.172,137.206 8.567 C 137.493 8.997,137.351 43.611,137.061 43.852 C 136.893 43.991,136.167 44.110,135.153 44.164 C 133.254 44.264,132.946 44.430,133.370 45.128 L 133.646 45.583 140.067 45.627 L 146.489 45.671 146.755 45.157 C 147.192 44.313,146.918 44.167,144.902 44.167 C 143.368 44.167,143.159 44.131,143.006 43.844 C 142.890 43.628,142.833 37.785,142.833 26.083 C 142.833 14.381,142.890 8.539,143.006 8.322 C 143.159 8.037,143.368 8.000,144.848 8.000 L 146.517 8.000 146.771 7.392 C 146.979 6.893,146.985 6.760,146.804 6.645 C 146.572 6.498,133.735 6.465,133.375 6.610 M154.531 6.644 C 154.351 6.758,154.352 6.882,154.542 7.346 C 154.768 7.902,154.792 7.912,156.411 8.166 C 158.702 8.525,158.717 8.592,156.897 10.464 C 154.679 12.747,149.008 18.744,145.458 22.562 C 143.535 24.630,143.402 25.093,144.375 26.316 C 145.320 27.505,145.610 27.906,145.834 28.333 C 145.954 28.563,146.434 29.200,146.901 29.750 C 147.885 30.908,148.331 31.490,148.945 32.417 C 149.188 32.783,149.769 33.548,150.235 34.115 C 150.702 34.683,151.346 35.497,151.667 35.925 C 151.987 36.353,152.491 37.013,152.785 37.393 C 153.080 37.773,153.550 38.383,153.831 38.750 C 154.111 39.117,154.735 39.904,155.217 40.500 C 155.699 41.096,156.232 41.808,156.402 42.083 C 156.571 42.358,156.900 42.788,157.133 43.039 C 157.787 43.742,157.327 44.167,155.912 44.167 C 153.818 44.167,153.190 44.550,154.097 45.276 L 154.583 45.665 161.037 45.666 L 167.491 45.667 167.756 45.155 C 168.101 44.489,167.854 44.167,167.000 44.167 C 165.702 44.167,165.367 44.003,164.541 42.963 C 163.441 41.578,161.764 39.514,161.255 38.917 C 160.501 38.032,158.601 35.693,158.000 34.911 C 157.679 34.493,157.229 33.931,157.000 33.663 C 156.771 33.395,156.382 32.929,156.137 32.629 C 155.891 32.329,155.385 31.723,155.012 31.282 C 154.639 30.841,154.333 30.425,154.333 30.358 C 154.333 30.291,154.072 29.939,153.753 29.576 C 152.541 28.198,151.401 26.802,149.750 24.676 C 149.383 24.204,148.867 23.556,148.601 23.235 C 148.203 22.753,148.149 22.589,148.291 22.285 C 148.527 21.778,152.857 16.901,155.500 14.165 C 157.333 12.267,160.290 9.109,160.708 8.603 C 161.085 8.146,161.187 8.118,162.883 8.010 C 164.943 7.878,166.358 7.031,165.236 6.601 C 164.832 6.446,154.780 6.486,154.531 6.644 M243.124 6.676 C 242.300 7.168,243.666 8.000,245.296 8.000 C 246.278 8.000,246.494 8.055,246.804 8.386 L 247.167 8.771 247.167 26.200 L 247.167 43.628 246.789 43.876 C 246.547 44.035,245.844 44.148,244.830 44.193 C 242.740 44.284,242.298 44.680,243.496 45.388 C 244.149 45.774,257.485 45.804,258.167 45.421 C 258.479 45.245,258.960 45.210,260.083 45.282 C 262.140 45.412,264.239 45.109,265.539 44.494 C 266.113 44.223,266.704 44.000,266.852 44.000 C 267.000 44.000,267.404 43.775,267.750 43.500 C 268.096 43.225,268.449 43.000,268.534 43.000 C 268.871 43.000,270.601 41.429,270.894 40.857 C 271.065 40.523,271.333 40.100,271.489 39.917 C 273.293 37.795,273.174 32.926,271.257 30.415 C 270.951 30.014,270.674 29.625,270.642 29.551 C 270.545 29.329,268.217 27.333,268.055 27.333 C 267.973 27.333,267.512 27.080,267.032 26.771 C 266.552 26.461,265.862 26.161,265.500 26.103 C 264.057 25.872,263.232 24.626,264.333 24.340 C 264.700 24.245,265.291 24.091,265.647 23.999 C 266.003 23.906,266.391 23.715,266.509 23.573 C 266.627 23.430,266.958 23.216,267.244 23.097 C 267.783 22.871,269.604 21.154,270.333 20.183 C 270.925 19.395,271.708 16.603,271.576 15.750 C 271.241 13.577,270.796 12.173,270.198 11.402 C 269.211 10.130,267.507 8.621,266.833 8.422 C 266.604 8.354,266.096 8.115,265.705 7.890 C 264.398 7.141,262.986 6.956,257.417 6.806 C 247.186 6.530,243.427 6.496,243.124 6.676 M278.392 6.753 C 278.339 6.892,278.388 7.230,278.501 7.503 L 278.707 8.000 280.408 8.000 C 281.970 8.000,282.138 8.031,282.471 8.386 L 282.833 8.771 282.833 26.210 L 282.833 43.648 282.463 43.907 C 282.187 44.100,281.663 44.167,280.411 44.167 C 278.373 44.167,278.069 44.313,278.418 45.125 L 278.651 45.667 292.961 45.667 L 307.271 45.667 307.699 45.208 C 308.163 44.712,308.233 44.347,308.496 41.083 C 308.699 38.562,308.700 35.777,308.500 35.249 C 308.100 34.198,306.977 35.527,306.596 37.500 C 305.759 41.839,303.429 43.773,298.750 44.013 C 293.100 44.302,289.221 44.217,288.926 43.796 C 288.480 43.160,288.540 26.833,288.990 26.426 C 289.423 26.034,292.115 26.293,293.100 26.821 C 293.455 27.011,293.879 27.167,294.043 27.167 C 295.034 27.167,296.102 28.935,297.112 32.250 C 297.438 33.319,297.815 33.562,298.018 32.833 C 298.320 31.745,298.179 19.229,297.860 18.941 C 297.467 18.585,297.060 18.968,296.898 19.844 C 296.840 20.159,296.704 20.567,296.595 20.750 C 296.486 20.933,296.267 21.421,296.109 21.833 C 295.380 23.731,293.955 24.509,290.986 24.630 L 289.221 24.702 288.944 24.117 C 288.535 23.255,288.523 9.262,288.931 8.473 L 289.195 7.962 293.139 8.057 C 299.381 8.208,300.382 8.334,301.856 9.150 C 303.631 10.134,305.149 12.271,305.526 14.316 C 305.767 15.630,306.685 16.198,307.324 15.428 C 307.702 14.972,307.492 7.027,307.093 6.736 C 306.588 6.367,278.534 6.384,278.392 6.753 M353.357 6.638 C 352.594 7.157,353.938 8.000,355.531 8.000 C 357.324 8.000,357.167 6.248,357.167 26.197 C 357.167 46.155,357.369 44.167,355.335 44.167 C 353.268 44.167,352.658 44.576,353.609 45.324 C 354.036 45.660,354.207 45.670,358.478 45.628 L 362.904 45.583 363.064 45.027 C 363.282 44.264,363.078 44.172,361.158 44.169 C 360.146 44.168,359.494 44.094,359.367 43.967 C 359.062 43.662,359.090 11.076,359.396 10.525 L 359.613 10.134 359.796 10.609 C 359.897 10.870,360.029 11.421,360.090 11.833 C 360.150 12.246,360.348 12.921,360.529 13.333 C 360.711 13.746,360.965 14.628,361.094 15.293 C 361.223 15.959,361.477 16.794,361.658 17.150 C 361.839 17.505,362.068 18.300,362.167 18.917 C 362.265 19.533,362.498 20.336,362.684 20.700 C 362.870 21.064,363.131 21.934,363.265 22.633 C 363.398 23.332,363.623 24.080,363.764 24.294 C 363.904 24.509,364.127 25.245,364.258 25.931 C 364.389 26.616,364.640 27.493,364.816 27.880 C 364.991 28.267,365.228 29.071,365.342 29.667 C 365.456 30.262,365.681 31.015,365.843 31.339 C 366.004 31.662,366.213 32.341,366.306 32.848 C 366.400 33.354,366.636 34.177,366.830 34.676 C 367.024 35.175,367.291 36.128,367.423 36.793 C 367.554 37.459,367.807 38.288,367.984 38.636 C 368.162 38.984,368.394 39.752,368.502 40.342 C 368.609 40.933,368.833 41.717,369.000 42.083 C 369.167 42.450,369.354 43.050,369.416 43.417 C 369.701 45.106,370.572 46.063,371.285 45.471 C 371.688 45.137,372.507 43.152,372.776 41.858 C 372.917 41.184,373.166 40.396,373.331 40.108 C 373.496 39.819,373.709 39.121,373.805 38.556 C 373.900 37.992,374.126 37.239,374.307 36.885 C 374.488 36.530,374.714 35.817,374.810 35.301 C 374.905 34.785,375.165 33.925,375.388 33.390 C 375.610 32.855,375.845 32.042,375.911 31.583 C 375.976 31.125,376.175 30.512,376.354 30.221 C 376.532 29.931,376.787 29.122,376.920 28.425 C 377.054 27.728,377.289 26.916,377.442 26.620 C 377.596 26.325,377.824 25.600,377.949 25.008 C 378.073 24.417,378.290 23.705,378.431 23.425 C 378.571 23.145,378.832 22.294,379.011 21.532 C 379.189 20.770,379.449 19.927,379.587 19.659 C 379.726 19.390,379.960 18.588,380.106 17.877 C 380.253 17.165,380.503 16.321,380.663 16.000 C 380.823 15.679,381.076 14.867,381.225 14.195 C 381.375 13.523,381.650 12.779,381.837 12.541 C 382.023 12.304,382.258 11.785,382.358 11.388 C 382.547 10.635,382.727 10.483,382.899 10.930 C 383.171 11.638,383.005 43.622,382.728 43.852 C 382.560 43.991,381.834 44.110,380.819 44.164 C 378.920 44.264,378.613 44.430,379.036 45.128 L 379.312 45.583 385.818 45.627 L 392.323 45.671 392.592 45.149 C 392.981 44.398,392.744 44.264,390.847 44.164 C 389.833 44.110,389.107 43.991,388.939 43.852 C 388.552 43.531,388.517 8.935,388.903 8.407 C 389.101 8.136,389.388 8.074,390.654 8.025 C 392.042 7.972,392.196 7.932,392.501 7.544 C 393.313 6.512,393.252 6.500,387.142 6.500 C 381.157 6.500,381.453 6.426,381.091 8.018 C 380.942 8.671,380.677 9.487,380.501 9.832 C 380.324 10.177,380.108 10.911,380.019 11.463 C 379.930 12.014,379.699 12.813,379.505 13.238 C 379.312 13.663,379.077 14.426,378.983 14.933 C 378.889 15.439,378.662 16.206,378.477 16.635 C 378.292 17.065,378.065 17.829,377.971 18.333 C 377.878 18.837,377.628 19.664,377.415 20.169 C 377.203 20.674,376.945 21.552,376.842 22.119 C 376.739 22.687,376.506 23.488,376.323 23.901 C 376.141 24.313,375.912 25.085,375.814 25.617 C 375.716 26.148,375.488 26.909,375.307 27.307 C 375.126 27.704,374.898 28.492,374.801 29.057 C 374.703 29.621,374.478 30.371,374.301 30.723 C 374.123 31.075,373.871 31.925,373.739 32.613 C 373.385 34.466,373.327 34.513,372.606 33.531 C 372.130 32.882,371.922 32.361,371.671 31.187 C 371.494 30.357,371.237 29.507,371.101 29.297 C 370.965 29.088,370.765 28.392,370.656 27.750 C 370.546 27.108,370.322 26.316,370.157 25.989 C 369.993 25.662,369.741 24.780,369.599 24.028 C 369.456 23.277,369.224 22.439,369.083 22.166 C 368.942 21.894,368.707 21.088,368.561 20.377 C 368.415 19.665,368.187 18.872,368.054 18.615 C 367.922 18.357,367.666 17.467,367.485 16.637 C 367.304 15.807,367.054 14.931,366.930 14.689 C 366.805 14.448,366.574 13.612,366.417 12.833 C 366.259 12.054,366.021 11.205,365.888 10.947 C 365.755 10.688,365.539 9.916,365.408 9.230 C 365.131 7.785,364.966 7.421,364.455 7.129 C 363.896 6.810,353.763 6.361,353.357 6.638 M204.223 7.328 C 206.981 7.780,208.684 12.194,207.272 15.233 C 207.055 15.701,206.831 16.271,206.774 16.500 C 206.717 16.729,206.267 17.329,205.774 17.833 C 203.580 20.077,202.302 20.418,201.510 18.971 C 200.456 17.046,200.269 16.726,199.977 16.352 C 199.806 16.133,199.556 15.583,199.421 15.129 C 199.286 14.676,199.017 14.047,198.822 13.732 C 197.505 11.601,199.373 7.702,201.887 7.334 C 203.128 7.153,203.154 7.153,204.223 7.328 M20.318 8.316 C 21.404 8.445,21.903 8.597,22.537 8.991 C 22.987 9.271,23.420 9.500,23.500 9.500 C 23.579 9.500,23.812 9.744,24.018 10.042 C 24.224 10.340,24.523 10.712,24.683 10.869 C 24.843 11.027,25.057 11.589,25.157 12.119 C 25.258 12.650,25.414 13.355,25.504 13.686 C 25.858 14.996,25.442 20.483,24.926 21.319 C 24.630 21.797,23.777 22.722,22.937 23.476 C 22.025 24.294,14.578 24.744,13.858 24.025 C 13.366 23.532,13.287 9.045,13.773 8.350 C 14.073 7.922,16.887 7.907,20.318 8.316 M56.750 8.303 C 58.594 8.445,58.899 8.530,60.036 9.223 C 61.546 10.144,62.317 12.186,62.328 15.292 C 62.334 17.281,61.930 19.909,61.529 20.482 C 60.106 22.515,59.725 22.779,57.458 23.302 C 55.622 23.725,50.593 24.018,49.570 23.762 C 48.906 23.595,48.833 22.792,48.833 15.630 L 48.833 8.882 49.256 8.426 L 49.678 7.971 52.297 8.066 C 53.738 8.118,55.742 8.225,56.750 8.303 M258.861 8.296 C 261.261 8.421,261.319 8.433,262.055 8.962 C 262.467 9.258,262.877 9.500,262.966 9.500 C 263.055 9.500,263.259 9.706,263.418 9.958 C 263.578 10.210,263.849 10.530,264.022 10.668 C 264.221 10.828,264.460 11.465,264.678 12.418 C 264.866 13.242,265.091 14.147,265.177 14.428 C 265.379 15.090,265.379 17.411,265.177 18.072 C 265.091 18.353,264.889 19.209,264.729 19.974 C 264.383 21.630,263.969 22.278,262.481 23.500 C 261.434 24.359,254.033 24.736,253.219 23.971 L 252.833 23.609 252.833 16.296 C 252.833 9.966,252.869 8.915,253.096 8.476 L 253.359 7.968 254.888 8.068 C 255.729 8.123,257.517 8.226,258.861 8.296 M329.660 15.961 C 329.769 16.393,329.942 16.847,330.045 16.971 C 330.148 17.094,330.436 17.958,330.685 18.890 C 331.335 21.322,331.815 22.928,332.262 24.167 C 332.476 24.762,332.730 25.646,332.825 26.131 C 332.921 26.615,333.149 27.306,333.333 27.666 C 334.229 29.422,334.047 29.500,329.076 29.500 C 323.902 29.500,323.580 29.262,325.019 26.501 C 325.189 26.175,325.402 25.519,325.492 25.042 C 325.582 24.566,325.836 23.818,326.056 23.380 C 326.276 22.942,326.506 22.240,326.567 21.820 C 326.629 21.400,326.838 20.762,327.032 20.403 C 327.227 20.044,327.488 19.269,327.613 18.681 C 327.737 18.094,327.979 17.381,328.148 17.098 C 328.318 16.815,328.505 16.380,328.563 16.132 C 328.924 14.600,329.303 14.541,329.660 15.961 M198.643 24.590 C 199.023 25.098,199.334 25.567,199.334 25.632 C 199.334 25.697,199.615 26.175,199.959 26.694 C 200.302 27.214,200.808 28.026,201.083 28.499 C 201.358 28.972,201.748 29.597,201.948 29.888 C 202.149 30.179,202.469 30.717,202.659 31.083 C 202.849 31.450,203.263 32.162,203.578 32.667 C 203.893 33.171,204.352 33.958,204.598 34.417 C 204.844 34.875,205.222 35.462,205.439 35.721 C 205.656 35.980,205.835 36.280,205.838 36.388 C 205.841 36.495,206.066 36.878,206.338 37.238 C 206.610 37.598,206.833 37.986,206.833 38.100 C 206.833 38.214,207.016 38.525,207.239 38.790 C 208.802 40.647,208.425 41.620,205.667 42.848 C 205.254 43.031,204.804 43.255,204.667 43.344 C 201.573 45.356,197.049 43.992,194.718 40.344 C 194.333 39.742,193.863 39.049,193.673 38.803 C 193.482 38.557,193.222 38.069,193.095 37.719 C 192.968 37.370,192.749 36.858,192.608 36.583 C 191.372 34.168,191.041 30.410,191.881 28.327 C 192.467 26.874,193.825 25.167,194.396 25.167 C 194.538 25.167,194.901 24.956,195.203 24.699 C 195.504 24.442,196.088 24.133,196.500 24.012 C 196.912 23.892,197.325 23.770,197.417 23.743 C 197.838 23.617,197.996 23.725,198.643 24.590 M20.083 26.192 C 23.215 26.572,25.793 28.589,26.184 30.965 C 26.370 32.095,26.362 38.468,26.174 39.463 C 25.893 40.944,24.733 42.437,23.055 43.477 C 21.945 44.165,14.477 44.499,13.805 43.891 C 13.369 43.496,13.329 26.819,13.762 26.200 C 14.054 25.784,16.693 25.780,20.083 26.192 M259.667 26.180 C 262.618 26.532,265.305 28.634,265.584 30.809 C 265.639 31.235,265.754 31.898,265.842 32.282 C 266.050 33.201,266.044 36.694,265.833 38.122 C 265.741 38.742,265.625 39.596,265.576 40.019 C 265.349 41.965,263.056 43.725,260.378 44.007 C 257.309 44.330,253.387 44.217,253.093 43.796 C 252.696 43.229,252.702 27.070,253.100 26.302 L 253.366 25.787 255.808 25.899 C 257.151 25.961,258.887 26.087,259.667 26.180 M86.375 53.024 C 86.023 53.377,86.142 53.950,86.677 54.485 L 87.188 54.996 87.131 60.206 C 87.070 65.854,87.067 65.873,86.229 66.271 C 85.017 66.846,86.336 67.331,89.114 67.332 C 91.845 67.334,92.533 66.989,91.584 66.095 C 90.647 65.211,90.511 62.485,91.379 62.005 C 91.953 61.689,92.812 62.565,94.270 64.950 C 94.654 65.578,95.207 66.303,95.784 66.932 C 96.305 67.501,100.042 67.550,100.690 66.997 L 101.083 66.662 100.675 66.372 C 100.306 66.111,98.220 64.042,97.276 63.000 C 97.069 62.771,96.755 62.340,96.580 62.042 C 96.405 61.744,96.208 61.500,96.144 61.500 C 96.079 61.500,95.938 61.235,95.831 60.910 C 95.634 60.313,95.800 59.833,96.203 59.833 C 96.555 59.833,97.375 59.092,97.923 58.278 C 99.005 56.672,98.441 54.256,96.839 53.634 C 95.278 53.028,86.861 52.538,86.375 53.024 M129.611 52.944 C 129.293 53.262,129.527 54.034,130.092 54.530 L 130.684 55.050 130.634 60.288 L 130.583 65.526 129.962 66.095 L 129.341 66.664 129.788 66.957 C 130.366 67.335,134.723 67.379,136.182 67.021 C 136.894 66.847,137.197 66.838,137.469 66.983 C 137.665 67.088,138.633 67.219,139.621 67.274 C 142.177 67.416,142.333 67.282,142.333 64.962 C 142.333 63.345,142.322 63.292,142.029 63.558 C 141.861 63.709,141.575 63.833,141.393 63.833 C 141.181 63.833,140.929 64.069,140.695 64.484 C 140.150 65.455,139.264 66.167,138.602 66.167 C 138.298 66.167,137.828 66.244,137.556 66.339 C 136.979 66.540,135.100 66.171,134.708 65.779 C 133.976 65.048,134.350 60.178,135.122 60.390 C 135.284 60.434,135.813 60.560,136.297 60.670 C 136.977 60.824,137.275 60.997,137.608 61.435 C 137.845 61.746,138.175 62.000,138.341 62.000 C 138.507 62.000,138.761 62.118,138.905 62.262 C 139.143 62.500,139.167 62.318,139.167 60.262 L 139.167 58.000 138.656 58.000 C 138.276 58.000,137.888 58.226,137.151 58.874 C 136.067 59.828,135.028 60.315,134.814 59.969 C 134.316 59.163,134.179 55.459,134.613 54.544 L 134.893 53.955 136.339 54.048 C 138.094 54.162,138.900 54.469,139.667 55.319 C 140.032 55.723,140.453 56.001,140.792 56.062 L 141.333 56.158 141.333 55.062 C 141.333 54.038,141.296 53.930,140.767 53.400 L 140.200 52.833 134.961 52.833 C 132.080 52.833,129.672 52.883,129.611 52.944 M177.333 53.094 C 177.012 53.201,176.660 53.468,176.550 53.686 C 175.936 54.905,175.349 56.322,175.247 56.833 C 175.182 57.154,175.028 57.532,174.904 57.673 C 174.578 58.044,174.167 59.092,174.167 59.552 C 174.167 59.770,173.994 60.149,173.784 60.394 C 173.573 60.639,173.308 61.186,173.195 61.610 C 173.081 62.035,172.844 62.584,172.667 62.832 C 172.491 63.080,172.278 63.587,172.195 63.958 C 172.011 64.776,171.142 65.901,170.483 66.174 C 169.304 66.662,170.169 67.333,171.977 67.333 C 174.190 67.333,175.014 66.836,173.897 66.177 C 173.057 65.682,173.110 64.335,174.005 63.411 L 174.565 62.833 176.762 62.833 C 179.274 62.833,179.126 62.754,179.739 64.421 L 180.167 65.583 179.542 66.129 C 178.940 66.654,178.929 66.684,179.237 66.918 C 180.024 67.517,184.907 67.502,185.509 66.899 L 185.860 66.547 185.096 66.100 C 184.314 65.641,183.812 64.902,183.593 63.887 C 183.530 63.595,183.370 63.266,183.238 63.156 C 183.105 63.046,182.875 62.537,182.726 62.024 C 182.577 61.511,182.319 60.902,182.154 60.671 C 181.989 60.439,181.767 59.913,181.662 59.500 C 181.556 59.087,181.333 58.525,181.167 58.250 C 181.000 57.975,180.776 57.413,180.668 57.000 C 180.561 56.587,180.340 56.020,180.177 55.738 C 180.014 55.457,179.753 54.844,179.598 54.376 C 179.442 53.908,179.225 53.456,179.116 53.370 C 178.660 53.015,177.914 52.899,177.333 53.094 M214.564 52.959 C 214.059 53.297,214.127 53.857,214.741 54.419 L 215.347 54.974 215.298 60.339 L 215.250 65.704 214.667 66.194 C 213.456 67.212,217.206 67.783,220.372 67.063 C 221.467 66.814,221.647 66.814,222.679 67.063 C 225.904 67.842,226.833 67.430,226.833 65.224 C 226.833 63.099,226.343 62.351,225.730 63.542 C 225.576 63.840,225.274 64.315,225.059 64.599 C 224.843 64.883,224.667 65.190,224.667 65.282 C 224.667 66.263,220.807 66.802,219.748 65.969 L 219.333 65.642 219.333 60.251 L 219.333 54.859 219.761 54.350 C 220.048 54.010,220.172 53.688,220.136 53.379 L 220.083 52.917 217.417 52.875 C 215.950 52.853,214.666 52.890,214.564 52.959 M254.264 53.355 C 253.824 54.099,253.800 56.002,254.224 56.471 C 254.580 56.865,254.884 56.801,255.126 56.282 C 255.681 55.093,257.228 54.000,258.356 54.000 C 259.293 54.000,259.388 54.592,259.264 59.666 C 259.119 65.604,259.123 65.575,258.306 66.167 L 257.646 66.645 258.107 66.948 C 258.758 67.375,262.804 67.489,263.719 67.107 C 264.503 66.780,264.491 66.670,263.605 66.034 C 262.659 65.354,262.667 65.404,262.667 59.678 C 262.667 54.507,262.666 54.508,263.583 54.217 C 264.651 53.878,265.965 54.637,266.589 55.953 C 267.209 57.259,267.865 56.754,267.896 54.947 C 267.914 53.837,267.871 53.648,267.513 53.265 L 267.109 52.833 260.840 52.833 L 254.572 52.833 254.264 53.355 M295.500 53.479 C 295.500 54.033,295.584 54.179,296.095 54.520 C 296.422 54.738,296.874 55.273,297.098 55.708 C 297.322 56.144,297.571 56.500,297.650 56.500 C 297.730 56.500,297.918 56.759,298.068 57.076 C 298.219 57.392,298.444 57.754,298.570 57.879 C 298.782 58.091,299.124 58.683,300.165 60.637 C 300.532 61.327,300.587 61.660,300.636 63.531 L 300.693 65.646 300.018 66.135 L 299.343 66.624 299.689 66.937 C 300.110 67.319,304.450 67.501,305.516 67.181 C 306.397 66.918,306.458 66.570,305.692 66.179 C 304.658 65.652,304.625 65.559,304.691 63.354 C 304.737 61.805,304.811 61.300,305.025 61.059 C 305.176 60.889,305.416 60.471,305.557 60.129 C 305.698 59.787,305.964 59.346,306.148 59.148 C 306.333 58.950,306.529 58.581,306.584 58.328 C 306.640 58.075,306.835 57.733,307.017 57.568 C 307.200 57.403,307.509 56.982,307.705 56.634 C 307.901 56.285,308.121 56.000,308.193 56.000 C 308.266 56.000,308.463 55.732,308.631 55.405 C 308.804 55.068,309.221 54.650,309.593 54.442 C 310.150 54.131,310.258 53.981,310.302 53.454 L 310.353 52.833 308.697 52.833 C 307.570 52.833,306.989 52.900,306.878 53.042 C 306.553 53.457,306.543 53.982,306.850 54.487 C 307.156 54.990,307.155 55.010,306.832 55.542 C 306.650 55.840,306.501 56.201,306.501 56.345 C 306.500 56.489,306.275 56.859,306.000 57.167 C 305.725 57.475,305.500 57.818,305.500 57.929 C 305.500 58.041,305.161 58.491,304.747 58.929 C 303.826 59.904,303.900 59.959,302.300 57.101 C 301.997 56.561,301.657 55.961,301.544 55.768 C 301.275 55.309,301.284 54.926,301.585 53.932 C 301.722 53.482,301.833 53.051,301.833 52.974 C 301.833 52.896,300.408 52.833,298.667 52.833 L 295.500 52.833 295.500 53.479 M93.563 54.654 C 95.858 56.073,93.718 60.817,91.338 59.586 L 90.833 59.325 90.833 57.150 C 90.833 54.048,91.539 53.403,93.563 54.654 M177.426 58.648 C 177.571 59.142,177.793 59.705,177.920 59.898 C 178.182 60.299,178.292 61.329,178.105 61.631 C 177.906 61.953,175.844 61.895,175.471 61.558 C 174.810 60.959,175.293 58.710,176.255 57.902 C 176.998 57.279,177.029 57.299,177.426 58.648 " stroke="none" fill="#121212" fill-rule="evenodd"></path><path id="path1" d="M0.000 37.750 L 0.000 75.500 200.000 75.500 L 400.000 75.500 400.000 37.750 L 400.000 0.000 200.000 0.000 L 0.000 0.000 0.000 37.750 M116.935 6.071 C 118.868 6.465,120.827 7.249,121.814 8.022 C 122.380 8.465,123.519 8.441,123.933 7.977 C 124.198 7.680,125.126 7.167,125.399 7.167 C 126.098 7.167,126.373 16.111,125.694 16.726 C 125.165 17.204,124.338 16.498,123.963 15.247 C 123.712 14.411,122.925 12.580,122.524 11.901 C 121.754 10.595,119.428 8.333,118.856 8.333 C 118.703 8.333,118.297 8.143,117.955 7.911 C 116.630 7.010,112.192 7.004,110.831 7.900 C 110.509 8.112,110.091 8.335,109.901 8.395 C 108.896 8.714,106.356 11.819,105.998 13.166 C 105.888 13.578,105.660 14.185,105.492 14.516 C 105.323 14.847,105.060 16.010,104.908 17.100 C 104.755 18.191,104.548 19.533,104.449 20.083 C 104.189 21.511,104.196 32.932,104.457 34.333 C 104.568 34.929,104.767 36.062,104.899 36.851 C 105.362 39.616,108.092 43.565,109.786 43.922 C 110.041 43.976,110.700 44.176,111.250 44.367 C 113.611 45.188,117.639 44.693,119.221 43.389 C 119.480 43.175,119.766 43.000,119.856 43.000 C 120.150 43.000,122.590 40.431,122.813 39.887 C 122.933 39.596,123.171 39.231,123.342 39.076 C 123.513 38.921,123.774 38.429,123.923 37.982 C 124.071 37.536,124.257 37.131,124.335 37.082 C 124.414 37.033,124.667 36.583,124.897 36.080 C 125.372 35.042,125.363 35.046,126.016 35.511 L 126.500 35.856 126.500 40.316 L 126.500 44.775 126.098 45.153 C 125.599 45.622,125.232 45.527,124.476 44.736 C 123.481 43.694,122.646 43.657,121.412 44.598 C 121.122 44.819,120.823 45.000,120.747 45.000 C 120.672 45.000,120.150 45.224,119.587 45.498 C 117.458 46.535,111.047 46.650,109.167 45.685 C 108.846 45.520,108.190 45.255,107.710 45.096 C 107.230 44.938,106.794 44.737,106.740 44.651 C 106.687 44.564,106.289 44.314,105.857 44.095 C 104.525 43.420,101.262 40.002,100.727 38.720 C 100.581 38.371,100.283 37.874,100.064 37.614 C 99.846 37.354,99.667 36.985,99.667 36.794 C 99.667 36.602,99.479 36.125,99.249 35.734 C 99.020 35.342,98.725 34.473,98.595 33.802 C 98.465 33.132,98.236 32.293,98.085 31.938 C 97.380 30.273,97.434 22.202,98.161 20.557 C 98.341 20.150,98.571 19.352,98.672 18.784 C 98.773 18.215,99.030 17.487,99.243 17.167 C 99.457 16.846,99.718 16.308,99.824 15.972 C 99.930 15.635,100.114 15.279,100.233 15.181 C 100.351 15.082,100.584 14.701,100.750 14.334 C 100.915 13.967,101.113 13.667,101.190 13.667 C 101.266 13.667,101.508 13.385,101.726 13.042 C 102.635 11.608,105.301 9.065,106.644 8.350 C 106.886 8.221,107.295 7.940,107.554 7.725 C 107.814 7.509,108.159 7.333,108.323 7.333 C 108.486 7.333,108.908 7.138,109.259 6.900 C 110.778 5.869,114.157 5.504,116.935 6.071 M205.819 6.136 C 206.590 6.324,207.416 6.622,207.655 6.799 C 207.894 6.975,208.245 7.169,208.435 7.229 C 210.188 7.786,212.222 11.658,211.879 13.786 C 211.594 15.560,209.710 18.044,207.990 18.916 C 207.675 19.076,207.287 19.321,207.128 19.460 C 206.969 19.600,206.144 20.059,205.294 20.482 C 203.489 21.380,203.338 21.783,204.268 23.221 C 205.143 24.574,205.863 25.797,206.872 27.644 C 207.122 28.102,207.401 28.522,207.492 28.578 C 207.583 28.635,207.810 28.996,207.998 29.382 C 208.185 29.768,208.596 30.496,208.911 31.000 C 209.226 31.504,209.674 32.268,209.905 32.697 C 210.137 33.125,210.405 33.525,210.500 33.583 C 210.595 33.642,210.862 34.041,211.093 34.470 C 211.324 34.899,211.748 35.580,212.034 35.983 L 212.556 36.717 213.199 35.983 C 213.553 35.580,214.023 34.908,214.242 34.490 C 214.461 34.071,214.759 33.631,214.904 33.511 C 215.048 33.391,215.167 33.200,215.167 33.086 C 215.167 32.973,215.385 32.471,215.652 31.971 C 215.919 31.471,216.226 30.729,216.335 30.322 C 216.444 29.916,216.671 29.277,216.841 28.903 C 217.390 27.691,217.715 23.781,217.300 23.367 C 217.171 23.237,216.478 23.164,215.342 23.160 C 213.980 23.154,213.457 23.085,213.022 22.854 L 212.461 22.555 212.920 22.194 C 213.525 21.718,222.783 21.626,223.675 22.088 C 224.786 22.662,223.732 23.167,221.420 23.167 L 219.828 23.167 219.498 23.708 C 219.316 24.006,219.128 24.512,219.079 24.833 C 219.030 25.154,218.920 25.642,218.834 25.917 C 218.748 26.192,218.563 27.180,218.424 28.113 C 218.278 29.089,218.031 30.045,217.842 30.365 C 217.661 30.671,217.431 31.306,217.330 31.775 C 217.230 32.244,216.964 32.876,216.740 33.180 C 216.516 33.483,216.333 33.851,216.333 33.996 C 216.333 34.383,215.250 36.070,213.885 37.809 L 213.521 38.273 214.031 39.345 C 214.312 39.934,214.720 40.629,214.937 40.888 C 215.155 41.147,215.333 41.435,215.333 41.527 C 215.333 41.620,215.542 42.008,215.798 42.389 C 216.053 42.771,216.342 43.233,216.439 43.417 C 216.752 44.006,217.331 44.161,219.250 44.170 C 220.370 44.175,221.226 44.258,221.451 44.383 L 221.818 44.587 221.476 45.127 L 221.134 45.667 216.609 45.664 C 211.124 45.662,211.550 45.767,210.510 44.150 C 210.044 43.426,209.570 42.834,209.456 42.834 C 208.913 42.837,207.986 43.214,207.837 43.494 C 207.745 43.666,207.387 43.896,207.043 44.005 C 206.698 44.113,206.154 44.375,205.833 44.586 C 205.512 44.796,204.987 45.020,204.667 45.084 C 204.346 45.147,203.821 45.351,203.500 45.538 C 201.833 46.506,194.771 46.606,193.273 45.682 C 192.986 45.504,192.438 45.252,192.056 45.121 C 190.818 44.695,187.833 41.978,187.833 41.277 C 187.833 41.160,187.652 40.819,187.430 40.518 C 187.208 40.217,186.934 39.584,186.821 39.110 C 186.709 38.637,186.477 37.843,186.307 37.346 C 185.891 36.131,185.852 33.102,186.243 32.347 C 186.390 32.063,186.649 31.385,186.818 30.841 C 186.987 30.297,187.304 29.620,187.521 29.336 C 188.594 27.935,189.901 26.464,190.302 26.205 C 190.548 26.047,190.862 25.787,191.000 25.629 C 191.394 25.176,192.340 24.538,193.276 24.093 C 193.749 23.868,194.181 23.611,194.237 23.522 C 194.292 23.432,194.698 23.239,195.138 23.093 C 196.263 22.719,197.328 21.629,196.974 21.213 C 196.743 20.941,196.330 20.121,194.812 16.917 C 194.087 15.386,193.959 11.590,194.603 10.718 C 194.797 10.455,195.110 9.942,195.298 9.578 C 196.098 8.027,198.407 6.505,200.593 6.087 C 201.302 5.951,201.926 5.796,201.981 5.742 C 202.161 5.561,204.399 5.791,205.819 6.136 M332.573 6.561 C 332.696 6.757,332.848 7.213,332.912 7.576 C 332.976 7.938,333.172 8.518,333.349 8.864 C 333.525 9.210,333.781 10.021,333.917 10.666 C 334.052 11.312,334.274 12.009,334.409 12.216 C 334.545 12.422,334.770 13.135,334.909 13.799 C 335.049 14.464,335.307 15.289,335.483 15.634 C 335.659 15.979,335.882 16.687,335.978 17.208 C 336.074 17.729,336.306 18.491,336.493 18.901 C 336.680 19.311,336.912 20.045,337.010 20.532 C 337.107 21.018,337.363 21.829,337.578 22.333 C 337.792 22.837,338.020 23.587,338.083 24.000 C 338.146 24.412,338.348 25.009,338.530 25.326 C 338.713 25.643,338.967 26.450,339.095 27.119 C 339.224 27.789,339.477 28.628,339.658 28.983 C 339.839 29.339,340.101 30.171,340.239 30.833 C 340.377 31.495,340.566 32.129,340.659 32.241 C 340.752 32.353,341.013 33.114,341.238 33.931 C 341.687 35.560,342.150 37.003,342.757 38.667 C 342.974 39.262,343.233 40.159,343.332 40.660 C 343.431 41.160,343.656 41.873,343.833 42.243 C 344.010 42.614,344.266 43.198,344.402 43.542 L 344.650 44.167 346.398 44.167 C 348.315 44.167,348.423 44.220,348.259 45.094 L 348.152 45.667 341.238 45.667 L 334.325 45.667 334.150 45.208 C 333.839 44.397,334.090 44.259,336.051 44.167 C 337.139 44.115,337.898 44.003,338.026 43.875 C 338.285 43.615,337.973 41.928,337.491 40.983 C 337.318 40.642,337.127 40.038,337.067 39.640 C 337.007 39.242,336.752 38.429,336.499 37.833 C 336.245 37.237,335.985 36.377,335.920 35.922 C 335.855 35.466,335.625 34.745,335.410 34.320 C 335.194 33.894,334.966 33.158,334.903 32.683 C 334.826 32.101,334.690 31.768,334.484 31.658 C 333.942 31.368,323.646 31.532,323.491 31.833 C 322.882 33.019,322.469 34.093,322.255 35.048 C 322.116 35.671,321.899 36.383,321.773 36.632 C 321.648 36.880,321.450 37.496,321.334 38.000 C 321.219 38.504,320.942 39.355,320.720 39.890 C 320.498 40.425,320.240 41.288,320.145 41.807 C 320.051 42.326,319.868 42.916,319.737 43.119 C 319.262 43.858,320.019 44.167,322.308 44.167 C 324.170 44.167,324.369 44.271,324.137 45.125 L 323.990 45.667 318.658 45.667 L 313.325 45.667 313.150 45.208 C 312.834 44.385,313.080 44.259,315.184 44.164 C 317.614 44.054,318.152 43.695,318.167 42.167 C 318.169 42.029,318.348 41.534,318.566 41.066 C 318.784 40.599,319.045 39.827,319.147 39.353 C 319.249 38.878,319.471 38.210,319.641 37.869 C 319.811 37.529,320.076 36.737,320.231 36.111 C 320.385 35.484,320.623 34.801,320.760 34.592 C 320.896 34.383,321.122 33.668,321.261 33.002 C 321.400 32.336,321.617 31.591,321.743 31.347 C 321.870 31.102,322.098 30.418,322.252 29.826 C 322.405 29.234,322.671 28.441,322.843 28.063 C 323.015 27.685,323.233 27.030,323.328 26.608 C 323.422 26.186,323.677 25.370,323.894 24.795 C 324.421 23.397,324.943 21.850,325.398 20.333 C 325.604 19.646,325.858 18.926,325.962 18.733 C 326.066 18.541,326.310 17.793,326.503 17.071 C 326.697 16.349,326.920 15.679,327.000 15.583 C 327.080 15.487,327.303 14.820,327.495 14.101 C 327.688 13.381,327.950 12.592,328.076 12.347 C 328.203 12.102,328.431 11.422,328.583 10.836 C 328.735 10.250,328.991 9.503,329.152 9.177 C 329.313 8.850,329.536 8.158,329.648 7.638 C 329.760 7.118,329.941 6.622,330.051 6.535 C 330.756 5.979,332.219 5.994,332.573 6.561 M16.917 6.808 C 23.782 6.964,24.490 7.058,26.667 8.110 C 28.001 8.755,30.101 10.428,30.479 11.148 C 30.604 11.387,30.849 11.740,31.023 11.930 C 31.300 12.235,31.613 13.321,31.944 15.125 C 31.999 15.422,31.964 16.097,31.866 16.625 C 31.768 17.152,31.639 17.973,31.580 18.450 C 31.324 20.491,28.067 23.449,25.187 24.258 C 24.004 24.589,24.042 24.525,24.604 25.263 C 24.932 25.692,25.278 25.903,25.979 26.104 C 26.495 26.251,27.248 26.587,27.654 26.852 C 28.059 27.117,28.474 27.333,28.577 27.333 C 29.281 27.333,32.189 30.769,32.756 32.270 C 33.604 34.513,33.648 35.435,32.994 37.250 C 32.829 37.708,32.643 38.346,32.581 38.667 C 32.356 39.835,30.213 42.477,29.007 43.074 C 28.591 43.280,28.025 43.569,27.750 43.716 C 25.244 45.061,23.302 45.460,20.215 45.265 C 18.876 45.180,18.382 45.211,17.903 45.412 C 17.391 45.626,16.253 45.667,10.837 45.667 L 4.382 45.667 3.928 45.246 C 3.116 44.493,3.573 44.211,5.654 44.183 C 7.719 44.156,7.500 46.288,7.500 26.178 C 7.500 6.115,7.671 8.000,5.849 8.000 C 4.646 8.000,3.646 7.554,3.533 6.967 C 3.438 6.473,2.539 6.483,16.917 6.808 M53.750 6.815 C 63.189 7.019,64.458 7.429,67.791 11.359 C 69.143 12.954,69.059 17.946,67.648 19.843 C 66.468 21.430,64.661 22.848,63.374 23.197 C 63.031 23.290,62.525 23.503,62.250 23.670 C 61.975 23.837,61.150 24.056,60.417 24.156 C 59.683 24.257,58.858 24.400,58.583 24.474 L 58.083 24.609 58.500 24.824 C 58.729 24.943,59.142 25.248,59.417 25.502 C 59.692 25.756,60.344 26.085,60.867 26.234 C 61.389 26.383,61.863 26.579,61.919 26.671 C 61.976 26.763,62.336 26.998,62.720 27.193 C 66.032 28.879,67.319 31.846,67.333 37.833 C 67.339 40.195,67.381 40.481,68.096 43.000 C 68.262 43.587,68.649 43.987,69.330 44.278 C 69.912 44.527,70.378 44.522,73.007 44.233 C 74.330 44.087,74.589 44.425,73.745 45.195 C 72.909 45.958,72.905 45.960,71.327 46.158 C 63.758 47.107,61.456 44.638,60.843 34.917 C 60.713 32.852,60.553 31.605,60.332 30.917 C 60.155 30.367,59.932 29.607,59.837 29.229 C 59.278 26.997,56.609 25.577,52.453 25.300 C 48.795 25.057,49.207 24.074,49.099 33.308 C 49.050 37.493,48.964 41.488,48.909 42.186 C 48.768 43.969,49.019 44.167,51.429 44.167 C 53.313 44.167,53.423 44.222,53.259 45.094 L 53.152 45.667 46.238 45.667 L 39.325 45.667 39.150 45.208 C 38.838 44.394,39.090 44.255,40.991 44.202 C 42.199 44.169,42.814 44.078,43.098 43.892 L 43.500 43.628 43.500 26.253 C 43.500 5.718,43.802 8.000,41.084 8.000 L 39.359 8.000 39.168 7.420 C 38.851 6.459,38.826 6.465,43.226 6.574 C 45.439 6.629,50.175 6.738,53.750 6.815 M92.475 6.720 C 92.610 6.882,92.585 7.045,92.380 7.345 C 91.953 7.968,91.862 7.995,90.117 7.997 C 88.567 8.000,88.463 8.022,88.075 8.441 L 87.667 8.882 87.667 26.165 L 87.667 43.448 88.017 43.766 C 88.306 44.028,88.709 44.098,90.342 44.167 C 92.597 44.262,92.800 44.360,92.332 45.129 L 92.005 45.667 85.038 45.667 L 78.072 45.667 77.761 45.141 C 77.287 44.338,77.643 44.167,79.788 44.167 C 81.094 44.167,81.611 44.101,81.923 43.897 L 82.333 43.628 82.333 26.200 L 82.333 8.771 81.971 8.386 C 81.638 8.031,81.470 8.000,79.900 8.000 C 78.252 8.000,78.178 7.984,77.845 7.561 C 77.452 7.061,77.405 6.733,77.708 6.610 C 78.237 6.397,92.293 6.501,92.475 6.720 M146.804 6.645 C 146.985 6.760,146.979 6.893,146.771 7.392 L 146.517 8.000 144.848 8.000 C 143.368 8.000,143.159 8.037,143.006 8.322 C 142.890 8.539,142.833 14.381,142.833 26.083 C 142.833 37.785,142.890 43.628,143.006 43.844 C 143.159 44.131,143.368 44.167,144.902 44.167 C 146.918 44.167,147.192 44.313,146.755 45.157 L 146.489 45.671 140.067 45.627 L 133.646 45.583 133.370 45.128 C 132.946 44.430,133.254 44.264,135.153 44.164 C 136.167 44.110,136.893 43.991,137.061 43.852 C 137.351 43.611,137.493 8.997,137.206 8.567 C 136.943 8.172,136.304 8.000,135.106 8.000 C 133.671 8.000,132.420 6.996,133.375 6.610 C 133.735 6.465,146.572 6.498,146.804 6.645 M165.236 6.601 C 166.358 7.031,164.943 7.878,162.883 8.010 C 161.187 8.118,161.085 8.146,160.708 8.603 C 160.290 9.109,157.333 12.267,155.500 14.165 C 152.857 16.901,148.527 21.778,148.291 22.285 C 148.149 22.589,148.203 22.753,148.601 23.235 C 148.867 23.556,149.383 24.204,149.750 24.676 C 151.401 26.802,152.541 28.198,153.753 29.576 C 154.072 29.939,154.333 30.291,154.333 30.358 C 154.333 30.425,154.639 30.841,155.012 31.282 C 155.385 31.723,155.891 32.329,156.137 32.629 C 156.382 32.929,156.771 33.395,157.000 33.663 C 157.229 33.931,157.679 34.493,158.000 34.911 C 158.601 35.693,160.501 38.032,161.255 38.917 C 161.764 39.514,163.441 41.578,164.541 42.963 C 165.367 44.003,165.702 44.167,167.000 44.167 C 167.854 44.167,168.101 44.489,167.756 45.155 L 167.491 45.667 161.037 45.666 L 154.583 45.665 154.097 45.276 C 153.190 44.550,153.818 44.167,155.912 44.167 C 157.327 44.167,157.787 43.742,157.133 43.039 C 156.900 42.788,156.571 42.358,156.402 42.083 C 156.232 41.808,155.699 41.096,155.217 40.500 C 154.735 39.904,154.111 39.117,153.831 38.750 C 153.550 38.383,153.080 37.773,152.785 37.393 C 152.491 37.013,151.987 36.353,151.667 35.925 C 151.346 35.497,150.702 34.683,150.235 34.115 C 149.769 33.548,149.188 32.783,148.945 32.417 C 148.331 31.490,147.885 30.908,146.901 29.750 C 146.434 29.200,145.954 28.563,145.834 28.333 C 145.610 27.906,145.320 27.505,144.375 26.316 C 143.402 25.093,143.535 24.630,145.458 22.562 C 149.008 18.744,154.679 12.747,156.897 10.464 C 158.717 8.592,158.702 8.525,156.411 8.166 C 154.792 7.912,154.768 7.902,154.542 7.346 C 154.352 6.882,154.351 6.758,154.531 6.644 C 154.780 6.486,164.832 6.446,165.236 6.601 M257.417 6.806 C 262.986 6.956,264.398 7.141,265.705 7.890 C 266.096 8.115,266.604 8.354,266.833 8.422 C 267.507 8.621,269.211 10.130,270.198 11.402 C 270.796 12.173,271.241 13.577,271.576 15.750 C 271.708 16.603,270.925 19.395,270.333 20.183 C 269.604 21.154,267.783 22.871,267.244 23.097 C 266.958 23.216,266.627 23.430,266.509 23.573 C 266.391 23.715,266.003 23.906,265.647 23.999 C 265.291 24.091,264.700 24.245,264.333 24.340 C 263.232 24.626,264.057 25.872,265.500 26.103 C 265.862 26.161,266.552 26.461,267.032 26.771 C 267.512 27.080,267.973 27.333,268.055 27.333 C 268.217 27.333,270.545 29.329,270.642 29.551 C 270.674 29.625,270.951 30.014,271.257 30.415 C 273.174 32.926,273.293 37.795,271.489 39.917 C 271.333 40.100,271.065 40.523,270.894 40.857 C 270.601 41.429,268.871 43.000,268.534 43.000 C 268.449 43.000,268.096 43.225,267.750 43.500 C 267.404 43.775,267.000 44.000,266.852 44.000 C 266.704 44.000,266.113 44.223,265.539 44.494 C 264.239 45.109,262.140 45.412,260.083 45.282 C 258.960 45.210,258.479 45.245,258.167 45.421 C 257.485 45.804,244.149 45.774,243.496 45.388 C 242.298 44.680,242.740 44.284,244.830 44.193 C 245.844 44.148,246.547 44.035,246.789 43.876 L 247.167 43.628 247.167 26.200 L 247.167 8.771 246.804 8.386 C 246.494 8.055,246.278 8.000,245.296 8.000 C 244.069 8.000,243.297 7.722,243.004 7.174 C 242.612 6.441,243.266 6.424,257.417 6.806 M307.093 6.736 C 307.492 7.027,307.702 14.972,307.324 15.428 C 306.685 16.198,305.767 15.630,305.526 14.316 C 305.149 12.271,303.631 10.134,301.856 9.150 C 300.382 8.334,299.381 8.208,293.139 8.057 L 289.195 7.962 288.931 8.473 C 288.523 9.262,288.535 23.255,288.944 24.117 L 289.221 24.702 290.986 24.630 C 293.955 24.509,295.380 23.731,296.109 21.833 C 296.267 21.421,296.486 20.933,296.595 20.750 C 296.704 20.567,296.840 20.159,296.898 19.844 C 297.060 18.968,297.467 18.585,297.860 18.941 C 298.179 19.229,298.320 31.745,298.018 32.833 C 297.815 33.562,297.438 33.319,297.112 32.250 C 296.102 28.935,295.034 27.167,294.043 27.167 C 293.879 27.167,293.455 27.011,293.100 26.821 C 292.115 26.293,289.423 26.034,288.990 26.426 C 288.540 26.833,288.480 43.160,288.926 43.796 C 289.221 44.217,293.100 44.302,298.750 44.013 C 303.429 43.773,305.759 41.839,306.596 37.500 C 306.977 35.527,308.100 34.198,308.500 35.249 C 308.700 35.777,308.699 38.562,308.496 41.083 C 308.233 44.347,308.163 44.712,307.699 45.208 L 307.271 45.667 292.961 45.667 L 278.651 45.667 278.418 45.125 C 278.069 44.313,278.373 44.167,280.411 44.167 C 281.663 44.167,282.187 44.100,282.463 43.907 L 282.833 43.648 282.833 26.210 L 282.833 8.771 282.471 8.386 C 282.138 8.031,281.970 8.000,280.408 8.000 L 278.707 8.000 278.501 7.503 C 278.057 6.430,277.073 6.500,292.630 6.500 C 304.572 6.500,306.820 6.537,307.093 6.736 M361.583 6.797 C 364.906 6.956,364.982 7.005,365.408 9.230 C 365.539 9.916,365.755 10.688,365.888 10.947 C 366.021 11.205,366.259 12.054,366.417 12.833 C 366.574 13.612,366.805 14.448,366.930 14.689 C 367.054 14.931,367.304 15.807,367.485 16.637 C 367.666 17.467,367.922 18.357,368.054 18.615 C 368.187 18.872,368.415 19.665,368.561 20.377 C 368.707 21.088,368.942 21.894,369.083 22.166 C 369.224 22.439,369.456 23.277,369.599 24.028 C 369.741 24.780,369.993 25.662,370.157 25.989 C 370.322 26.316,370.546 27.108,370.656 27.750 C 370.765 28.392,370.965 29.088,371.101 29.297 C 371.237 29.507,371.494 30.357,371.671 31.187 C 371.922 32.361,372.130 32.882,372.606 33.531 C 373.327 34.513,373.385 34.466,373.739 32.613 C 373.871 31.925,374.123 31.075,374.301 30.723 C 374.478 30.371,374.703 29.621,374.801 29.057 C 374.898 28.492,375.126 27.704,375.307 27.307 C 375.488 26.909,375.716 26.148,375.814 25.617 C 375.912 25.085,376.141 24.313,376.323 23.901 C 376.506 23.488,376.739 22.687,376.842 22.119 C 376.945 21.552,377.203 20.674,377.415 20.169 C 377.628 19.664,377.878 18.837,377.971 18.333 C 378.065 17.829,378.292 17.065,378.477 16.635 C 378.662 16.206,378.889 15.439,378.983 14.933 C 379.077 14.426,379.312 13.663,379.505 13.238 C 379.699 12.813,379.930 12.014,380.019 11.463 C 380.108 10.911,380.324 10.177,380.501 9.832 C 380.677 9.487,380.942 8.671,381.091 8.018 C 381.453 6.426,381.157 6.500,387.142 6.500 C 393.252 6.500,393.313 6.512,392.501 7.544 C 392.196 7.932,392.042 7.972,390.654 8.025 C 389.388 8.074,389.101 8.136,388.903 8.407 C 388.517 8.935,388.552 43.531,388.939 43.852 C 389.107 43.991,389.833 44.110,390.847 44.164 C 392.744 44.264,392.981 44.398,392.592 45.149 L 392.323 45.671 385.818 45.627 L 379.312 45.583 379.036 45.128 C 378.613 44.430,378.920 44.264,380.819 44.164 C 381.834 44.110,382.560 43.991,382.728 43.852 C 383.005 43.622,383.171 11.638,382.899 10.930 C 382.727 10.483,382.547 10.635,382.358 11.388 C 382.258 11.785,382.023 12.304,381.837 12.541 C 381.650 12.779,381.375 13.523,381.225 14.195 C 381.076 14.867,380.823 15.679,380.663 16.000 C 380.503 16.321,380.253 17.165,380.106 17.877 C 379.960 18.588,379.726 19.390,379.587 19.659 C 379.449 19.927,379.189 20.770,379.011 21.532 C 378.832 22.294,378.571 23.145,378.431 23.425 C 378.290 23.705,378.073 24.417,377.949 25.008 C 377.824 25.600,377.596 26.325,377.442 26.620 C 377.289 26.916,377.054 27.728,376.920 28.425 C 376.787 29.122,376.532 29.931,376.354 30.221 C 376.175 30.512,375.976 31.125,375.911 31.583 C 375.845 32.042,375.610 32.855,375.388 33.390 C 375.165 33.925,374.905 34.785,374.810 35.301 C 374.714 35.817,374.488 36.530,374.307 36.885 C 374.126 37.239,373.900 37.992,373.805 38.556 C 373.709 39.121,373.496 39.819,373.331 40.108 C 373.166 40.396,372.917 41.184,372.776 41.858 C 371.910 46.016,370.003 46.901,369.416 43.417 C 369.354 43.050,369.167 42.450,369.000 42.083 C 368.833 41.717,368.609 40.933,368.502 40.342 C 368.394 39.752,368.162 38.984,367.984 38.636 C 367.807 38.288,367.554 37.459,367.423 36.793 C 367.291 36.128,367.024 35.175,366.830 34.676 C 366.636 34.177,366.400 33.354,366.306 32.848 C 366.213 32.341,366.004 31.662,365.843 31.339 C 365.681 31.015,365.456 30.262,365.342 29.667 C 365.228 29.071,364.991 28.267,364.816 27.880 C 364.640 27.493,364.389 26.616,364.258 25.931 C 364.127 25.245,363.904 24.509,363.764 24.294 C 363.623 24.080,363.398 23.332,363.265 22.633 C 363.131 21.934,362.870 21.064,362.684 20.700 C 362.498 20.336,362.265 19.533,362.167 18.917 C 362.068 18.300,361.839 17.505,361.658 17.150 C 361.477 16.794,361.223 15.959,361.094 15.293 C 360.965 14.628,360.711 13.746,360.529 13.333 C 360.348 12.921,360.150 12.246,360.090 11.833 C 360.029 11.421,359.897 10.870,359.796 10.609 L 359.613 10.134 359.396 10.525 C 359.090 11.076,359.062 43.662,359.367 43.967 C 359.494 44.094,360.146 44.168,361.158 44.169 C 363.078 44.172,363.282 44.264,363.064 45.027 L 362.904 45.583 358.478 45.628 C 354.207 45.670,354.036 45.660,353.609 45.324 C 352.658 44.576,353.268 44.167,355.335 44.167 C 357.369 44.167,357.167 46.155,357.167 26.197 C 357.167 6.248,357.324 8.000,355.531 8.000 C 354.331 8.000,353.403 7.648,353.238 7.130 C 353.019 6.439,353.626 6.414,361.583 6.797 M201.887 7.334 C 199.373 7.702,197.505 11.601,198.822 13.732 C 199.017 14.047,199.286 14.676,199.421 15.129 C 199.556 15.583,199.806 16.133,199.977 16.352 C 200.269 16.726,200.456 17.046,201.510 18.971 C 202.302 20.418,203.580 20.077,205.774 17.833 C 206.267 17.329,206.717 16.729,206.774 16.500 C 206.831 16.271,207.055 15.701,207.272 15.233 C 208.684 12.194,206.981 7.780,204.223 7.328 C 203.154 7.153,203.128 7.153,201.887 7.334 M13.773 8.350 C 13.287 9.045,13.366 23.532,13.858 24.025 C 14.578 24.744,22.025 24.294,22.937 23.476 C 23.777 22.722,24.630 21.797,24.926 21.319 C 25.442 20.483,25.858 14.996,25.504 13.686 C 25.414 13.355,25.258 12.650,25.157 12.119 C 25.057 11.589,24.843 11.027,24.683 10.869 C 24.523 10.712,24.224 10.340,24.018 10.042 C 23.812 9.744,23.579 9.500,23.500 9.500 C 23.420 9.500,22.987 9.271,22.537 8.991 C 21.105 8.101,14.297 7.603,13.773 8.350 M49.256 8.426 L 48.833 8.882 48.833 15.630 C 48.833 22.792,48.906 23.595,49.570 23.762 C 50.593 24.018,55.622 23.725,57.458 23.302 C 59.725 22.779,60.106 22.515,61.529 20.482 C 62.271 19.422,62.565 14.606,62.025 12.333 C 61.587 10.484,60.784 9.505,59.000 8.645 C 58.522 8.415,56.080 8.204,52.297 8.066 L 49.678 7.971 49.256 8.426 M253.096 8.476 C 252.869 8.915,252.833 9.966,252.833 16.296 L 252.833 23.609 253.219 23.971 C 254.033 24.736,261.434 24.359,262.481 23.500 C 263.969 22.278,264.383 21.630,264.729 19.974 C 264.889 19.209,265.091 18.353,265.177 18.072 C 265.379 17.411,265.379 15.090,265.177 14.428 C 265.091 14.147,264.866 13.242,264.678 12.418 C 264.460 11.465,264.221 10.828,264.022 10.668 C 263.849 10.530,263.578 10.210,263.418 9.958 C 263.259 9.706,263.055 9.500,262.966 9.500 C 262.877 9.500,262.467 9.258,262.055 8.962 C 261.319 8.433,261.261 8.421,258.861 8.296 C 257.517 8.226,255.729 8.123,254.888 8.068 L 253.359 7.968 253.096 8.476 M328.837 15.239 C 328.745 15.482,328.622 15.884,328.563 16.132 C 328.505 16.380,328.318 16.815,328.148 17.098 C 327.979 17.381,327.737 18.094,327.613 18.681 C 327.488 19.269,327.227 20.044,327.032 20.403 C 326.838 20.762,326.629 21.400,326.567 21.820 C 326.506 22.240,326.276 22.942,326.056 23.380 C 325.836 23.818,325.582 24.566,325.492 25.042 C 325.402 25.519,325.189 26.175,325.019 26.501 C 323.580 29.262,323.902 29.500,329.076 29.500 C 334.047 29.500,334.229 29.422,333.333 27.666 C 333.149 27.306,332.921 26.615,332.825 26.131 C 332.730 25.646,332.476 24.762,332.262 24.167 C 331.815 22.928,331.335 21.322,330.685 18.890 C 330.436 17.958,330.148 17.094,330.045 16.971 C 329.942 16.847,329.769 16.393,329.660 15.961 C 329.401 14.929,329.067 14.636,328.837 15.239 M197.417 23.743 C 197.325 23.770,196.912 23.892,196.500 24.012 C 196.088 24.133,195.504 24.442,195.203 24.699 C 194.901 24.956,194.538 25.167,194.396 25.167 C 193.825 25.167,192.467 26.874,191.881 28.327 C 191.041 30.410,191.372 34.168,192.608 36.583 C 192.749 36.858,192.968 37.370,193.095 37.719 C 193.222 38.069,193.482 38.557,193.673 38.803 C 193.863 39.049,194.333 39.742,194.718 40.344 C 197.049 43.992,201.573 45.356,204.667 43.344 C 204.804 43.255,205.254 43.031,205.667 42.848 C 208.425 41.620,208.802 40.647,207.239 38.790 C 207.016 38.525,206.833 38.214,206.833 38.100 C 206.833 37.986,206.610 37.598,206.338 37.238 C 206.066 36.878,205.841 36.495,205.838 36.388 C 205.835 36.280,205.656 35.980,205.439 35.721 C 205.222 35.462,204.844 34.875,204.598 34.417 C 204.352 33.958,203.893 33.171,203.578 32.667 C 203.263 32.162,202.849 31.450,202.659 31.083 C 202.469 30.717,202.149 30.179,201.948 29.888 C 201.748 29.597,201.358 28.972,201.083 28.499 C 200.808 28.026,200.302 27.214,199.959 26.694 C 199.615 26.175,199.334 25.697,199.334 25.632 C 199.334 25.567,199.023 25.098,198.643 24.590 C 197.996 23.725,197.838 23.617,197.417 23.743 M13.762 26.200 C 13.329 26.819,13.369 43.496,13.805 43.891 C 14.477 44.499,21.945 44.165,23.055 43.477 C 25.860 41.739,26.339 40.523,26.323 35.186 C 26.308 29.715,25.705 28.322,22.750 26.925 C 20.770 25.989,14.277 25.465,13.762 26.200 M253.100 26.302 C 252.702 27.070,252.696 43.229,253.093 43.796 C 253.387 44.217,257.309 44.330,260.378 44.007 C 263.056 43.725,265.349 41.965,265.576 40.019 C 265.625 39.596,265.741 38.742,265.833 38.122 C 266.044 36.694,266.050 33.201,265.842 32.282 C 265.754 31.898,265.639 31.235,265.584 30.809 C 265.411 29.462,263.946 27.743,262.278 26.931 C 260.917 26.268,259.739 26.080,255.808 25.899 L 253.366 25.787 253.100 26.302 M94.833 53.208 C 97.555 53.658,98.500 54.482,98.500 56.405 C 98.500 57.764,97.113 59.833,96.203 59.833 C 95.800 59.833,95.634 60.313,95.831 60.910 C 95.938 61.235,96.079 61.500,96.144 61.500 C 96.208 61.500,96.405 61.744,96.580 62.042 C 96.755 62.340,97.069 62.771,97.276 63.000 C 98.220 64.042,100.306 66.111,100.675 66.372 L 101.083 66.662 100.690 66.997 C 100.042 67.550,96.305 67.501,95.784 66.932 C 95.207 66.303,94.654 65.578,94.270 64.950 C 92.812 62.565,91.953 61.689,91.379 62.005 C 90.511 62.485,90.647 65.211,91.584 66.095 C 92.533 66.989,91.845 67.334,89.114 67.332 C 86.336 67.331,85.017 66.846,86.229 66.271 C 87.067 65.873,87.070 65.854,87.131 60.206 L 87.188 54.996 86.677 54.485 C 86.142 53.950,86.023 53.377,86.375 53.024 C 86.669 52.730,92.735 52.862,94.833 53.208 M140.767 53.400 C 141.296 53.930,141.333 54.038,141.333 55.062 L 141.333 56.158 140.792 56.062 C 140.453 56.001,140.032 55.723,139.667 55.319 C 138.900 54.469,138.094 54.162,136.339 54.048 L 134.893 53.955 134.613 54.544 C 134.179 55.459,134.316 59.163,134.814 59.969 C 135.028 60.315,136.067 59.828,137.151 58.874 C 137.888 58.226,138.276 58.000,138.656 58.000 L 139.167 58.000 139.167 60.262 C 139.167 62.318,139.143 62.500,138.905 62.262 C 138.761 62.118,138.507 62.000,138.341 62.000 C 138.175 62.000,137.845 61.746,137.608 61.435 C 137.275 60.997,136.977 60.824,136.297 60.670 C 135.813 60.560,135.284 60.434,135.122 60.390 C 134.350 60.178,133.976 65.048,134.708 65.779 C 135.100 66.171,136.979 66.540,137.556 66.339 C 137.828 66.244,138.298 66.167,138.602 66.167 C 139.264 66.167,140.150 65.455,140.695 64.484 C 140.929 64.069,141.181 63.833,141.393 63.833 C 141.575 63.833,141.861 63.709,142.029 63.558 C 142.322 63.292,142.333 63.345,142.333 64.962 C 142.333 67.282,142.177 67.416,139.621 67.274 C 138.633 67.219,137.665 67.088,137.469 66.983 C 137.197 66.838,136.894 66.847,136.182 67.021 C 134.723 67.379,130.366 67.335,129.788 66.957 L 129.341 66.664 129.962 66.095 L 130.583 65.526 130.634 60.288 L 130.684 55.050 130.092 54.530 C 129.527 54.034,129.293 53.262,129.611 52.944 C 129.672 52.883,132.080 52.833,134.961 52.833 L 140.200 52.833 140.767 53.400 M179.116 53.370 C 179.225 53.456,179.442 53.908,179.598 54.376 C 179.753 54.844,180.014 55.457,180.177 55.738 C 180.340 56.020,180.561 56.587,180.668 57.000 C 180.776 57.413,181.000 57.975,181.167 58.250 C 181.333 58.525,181.556 59.087,181.662 59.500 C 181.767 59.913,181.989 60.439,182.154 60.671 C 182.319 60.902,182.577 61.511,182.726 62.024 C 182.875 62.537,183.105 63.046,183.238 63.156 C 183.370 63.266,183.530 63.595,183.593 63.887 C 183.812 64.902,184.314 65.641,185.096 66.100 L 185.860 66.547 185.509 66.899 C 184.907 67.502,180.024 67.517,179.237 66.918 C 178.929 66.684,178.940 66.654,179.542 66.129 L 180.167 65.583 179.739 64.421 C 179.126 62.754,179.274 62.833,176.762 62.833 L 174.565 62.833 174.005 63.411 C 173.110 64.335,173.057 65.682,173.897 66.177 C 175.014 66.836,174.190 67.333,171.977 67.333 C 170.169 67.333,169.304 66.662,170.483 66.174 C 171.142 65.901,172.011 64.776,172.195 63.958 C 172.278 63.587,172.491 63.080,172.667 62.832 C 172.844 62.584,173.081 62.035,173.195 61.610 C 173.308 61.186,173.573 60.639,173.784 60.394 C 173.994 60.149,174.167 59.770,174.167 59.552 C 174.167 59.092,174.578 58.044,174.904 57.673 C 175.028 57.532,175.182 57.154,175.247 56.833 C 175.349 56.322,175.936 54.905,176.550 53.686 C 176.923 52.945,178.346 52.770,179.116 53.370 M220.136 53.379 C 220.172 53.688,220.048 54.010,219.761 54.350 L 219.333 54.859 219.333 60.251 L 219.333 65.642 219.748 65.969 C 220.807 66.802,224.667 66.263,224.667 65.282 C 224.667 65.190,224.843 64.883,225.059 64.599 C 225.274 64.315,225.576 63.840,225.730 63.542 C 226.343 62.351,226.833 63.099,226.833 65.224 C 226.833 67.430,225.904 67.842,222.679 67.063 C 221.647 66.814,221.467 66.814,220.372 67.063 C 218.446 67.501,215.290 67.406,214.417 66.884 C 214.097 66.692,214.107 66.665,214.667 66.194 L 215.250 65.704 215.298 60.339 L 215.347 54.974 214.741 54.419 C 214.249 53.969,214.158 53.790,214.256 53.473 C 214.448 52.859,214.594 52.831,217.417 52.875 L 220.083 52.917 220.136 53.379 M267.513 53.265 C 267.871 53.648,267.914 53.837,267.896 54.947 C 267.865 56.754,267.209 57.259,266.589 55.953 C 265.965 54.637,264.651 53.878,263.583 54.217 C 262.666 54.508,262.667 54.507,262.667 59.678 C 262.667 65.404,262.659 65.354,263.605 66.034 C 264.491 66.670,264.503 66.780,263.719 67.107 C 262.804 67.489,258.758 67.375,258.107 66.948 L 257.646 66.645 258.306 66.167 C 259.123 65.575,259.119 65.604,259.264 59.666 C 259.388 54.592,259.293 54.000,258.356 54.000 C 257.228 54.000,255.681 55.093,255.126 56.282 C 254.884 56.801,254.580 56.865,254.224 56.471 C 253.800 56.002,253.824 54.099,254.264 53.355 L 254.572 52.833 260.840 52.833 L 267.109 52.833 267.513 53.265 M301.833 52.974 C 301.833 53.051,301.722 53.482,301.585 53.932 C 301.284 54.926,301.275 55.309,301.544 55.768 C 301.657 55.961,301.997 56.561,302.300 57.101 C 303.900 59.959,303.826 59.904,304.747 58.929 C 305.161 58.491,305.500 58.041,305.500 57.929 C 305.500 57.818,305.725 57.475,306.000 57.167 C 306.275 56.859,306.500 56.489,306.501 56.345 C 306.501 56.201,306.650 55.840,306.832 55.542 C 307.155 55.010,307.156 54.990,306.850 54.487 C 306.543 53.982,306.553 53.457,306.878 53.042 C 306.989 52.900,307.570 52.833,308.697 52.833 L 310.353 52.833 310.302 53.454 C 310.258 53.981,310.150 54.131,309.593 54.442 C 309.221 54.650,308.804 55.068,308.631 55.405 C 308.463 55.732,308.266 56.000,308.193 56.000 C 308.121 56.000,307.901 56.285,307.705 56.634 C 307.509 56.982,307.200 57.403,307.017 57.568 C 306.835 57.733,306.640 58.075,306.584 58.328 C 306.529 58.581,306.333 58.950,306.148 59.148 C 305.964 59.346,305.698 59.787,305.557 60.129 C 305.416 60.471,305.176 60.889,305.025 61.059 C 304.811 61.300,304.737 61.805,304.691 63.354 C 304.625 65.559,304.658 65.652,305.692 66.179 C 306.458 66.570,306.397 66.918,305.516 67.181 C 304.450 67.501,300.110 67.319,299.689 66.937 L 299.343 66.624 300.018 66.135 L 300.693 65.646 300.636 63.531 C 300.587 61.660,300.532 61.327,300.165 60.637 C 299.124 58.683,298.782 58.091,298.570 57.879 C 298.444 57.754,298.219 57.392,298.068 57.076 C 297.918 56.759,297.730 56.500,297.650 56.500 C 297.571 56.500,297.322 56.144,297.098 55.708 C 296.874 55.273,296.422 54.738,296.095 54.520 C 295.584 54.179,295.500 54.033,295.500 53.479 L 295.500 52.833 298.667 52.833 C 300.408 52.833,301.833 52.896,301.833 52.974 M91.309 54.499 C 90.835 54.973,90.833 54.980,90.833 57.150 L 90.833 59.325 91.338 59.586 C 93.162 60.529,95.115 57.951,94.344 55.617 C 93.941 54.395,92.093 53.714,91.309 54.499 M176.255 57.902 C 175.293 58.710,174.810 60.959,175.471 61.558 C 175.844 61.895,177.906 61.953,178.105 61.631 C 178.292 61.329,178.182 60.299,177.920 59.898 C 177.793 59.705,177.571 59.142,177.426 58.648 C 177.029 57.299,176.998 57.279,176.255 57.902 " stroke="none" fill="#fbfbfb" fill-rule="evenodd"></path></g></svg>